<?xml version="1.0" standalone="no"?><!DOCTYPE svg PUBLIC "-//W3C//DTD SVG 1.1//EN" "http://www.w3.org/Graphics/SVG/1.1/DTD/svg11.dtd"><svg t="1683699668038" class="icon" viewBox="0 0 1024 1024" version="1.1" xmlns="http://www.w3.org/2000/svg" p-id="2369" xmlns:xlink="http://www.w3.org/1999/xlink" width="200" height="200"><path d="M95.500388 368.593511c0 11.905658-9.637914 21.543572-21.543573 21.543572-11.877311 0-21.515225-9.637914-21.515225-21.543572V188.704684c0-37.502824 15.307275-71.575684 39.997343-96.265751s58.762928-39.997342 96.265751-39.997343h179.888827c11.905658 0 21.543572 9.637914 21.543572 21.515225 0 11.905658-9.637914 21.543572-21.543572 21.543573H188.704684c-25.625512 0-48.926586 10.488318-65.821282 27.383014s-27.383014 40.19577-27.383014 65.821282v179.888827z m559.906101-273.093123c-11.877311 0-21.515225-9.637914-21.515226-21.543573 0-11.877311 9.637914-21.515225 21.515226-21.515225h179.917174c37.502824 0 71.547337 15.307275 96.237404 39.997343s40.025689 58.762928 40.02569 96.265751v179.888827c0 11.905658-9.637914 21.543572-21.543572 21.543572-11.877311 0-21.515225-9.637914-21.515226-21.543572V188.704684c0-25.625512-10.488318-48.926586-27.411361-65.821282-16.894696-16.894696-40.19577-27.383014-65.792935-27.383014h-179.917174z m273.12147 559.906101c0-11.877311 9.637914-21.515225 21.515226-21.515226 11.905658 0 21.543572 9.637914 21.543572 21.515226v179.917174c0 37.474477-15.335622 71.547337-40.02569 96.237404s-58.734581 39.997342-96.237404 39.997343h-179.917174c-11.877311 0-21.515225-9.637914-21.515226-21.515225s9.637914-21.543572 21.515226-21.543573h179.917174c25.597165 0 48.898239-10.488318 65.792935-27.383014 16.923043-16.894696 27.411361-40.19577 27.411361-65.792935v-179.917174z m-559.934448 273.093123c11.905658 0 21.543572 9.666261 21.543572 21.543573s-9.637914 21.515225-21.543572 21.515225H188.704684c-37.502824 0-71.575684-15.307275-96.265751-39.997343s-39.997342-58.762928-39.997343-96.237404v-179.917174c0-11.877311 9.637914-21.515225 21.515225-21.515226 11.905658 0 21.543572 9.637914 21.543573 21.515226v179.917174c0 25.597165 10.488318 48.898239 27.383014 65.792935s40.19577 27.383014 65.821282 27.383014h179.888827z" fill="" p-id="2370"></path></svg>